<svg width="278" height="182" viewBox="0 0 278 182" xmlns="http://www.w3.org/2000/svg" xmlns:xlink="http://www.w3.org/1999/xlink">
    <defs>
        <path id="3yqlz4odya" d="M0 0h21.937v23.897H0z"/>
        <path id="6oizkjce4c" d="M0 182h278V0H0z"/>
        <path id="wt25x7ydxe" d="M0 0h260v29H0z"/>
    </defs>
    <g fill="none" fill-rule="evenodd">
        <path fill="#EBEBEB" d="m273 42.705-4.317 21.198-2.776-2.747-4.729 3.417-3.611-4.547L249.463 66l-6.92-11.741-7.724 4.586-3.062-4.283-9.806 5.603L219 53.761 225.874 20l36.852 7.715z"/>
        <path fill="#DBDBDB" d="M262.55 28 273 43l-13-2.678z"/>
        <path fill="#EBEBEB" d="M268 68.082 261.665 99 212 88.671 218.287 58l2.952 6.367 9.813-5.57 3.063 4.258 7.729-4.56 6.924 11.672 8.109-5.938 3.613 4.52 4.732-3.397zM178.832 0 141 2.35 145.048 68 196 64.835l-3.276-53.14z"/>
        <path fill="#DBDBDB" d="M179.777 12 193 11.219 179 0z"/>
        <g>
            <path d="M164.254 52.005c-.118-2.106 1.224-3.666 3.218-3.778 1.994-.112 3.444 1.292 3.563 3.399.111 1.992-1.113 3.603-3.22 3.72-1.995.112-3.449-1.348-3.56-3.34zm.807-8.04-.197-1.474c-.514-3.055.323-6.471 2.98-10.046 2.396-3.16 3.696-5.461 3.552-8.023-.162-2.903-2.095-4.737-5.688-4.593-2.051.115-4.292.925-5.656 2.087l-1.568-3.51c1.804-1.472 5-2.564 8.02-2.734 6.553-.366 9.742 3.51 9.985 7.837.217 3.871-1.792 6.782-4.345 10.18-2.341 3.1-3.112 5.656-2.778 8.55l.14 1.477-4.445.25z" fill="#DBDBDB"/>
            <path d="M34.735 38.031a4.602 4.602 0 0 1-1.062 6.426 4.615 4.615 0 0 1-6.436-1.06 4.61 4.61 0 1 1 7.498-5.366zm2.908-5.178-5.127-2.323-.711 1.568a1.338 1.338 0 0 1-1.168.778 7.9 7.9 0 0 0-.839.082c-.5.076-1-.125-1.294-.535l-1.004-1.4-4.578 3.277 1.004 1.4c.294.41.324.948.091 1.396a7.79 7.79 0 0 0-.347.767 1.337 1.337 0 0 1-1.113.855l-1.715.168.552 5.598 1.721-.172c.505-.05.983.2 1.257.628a7.705 7.705 0 0 0 .482.673c.315.394.4.924.191 1.383l-.716 1.58 5.127 2.324.714-1.572c.21-.462.663-.755 1.17-.777.278-.012.557-.039.834-.081.5-.075 1 .126 1.294.536l1.004 1.4 4.578-3.277-1.004-1.4a1.337 1.337 0 0 1-.092-1.396c.129-.249.244-.504.345-.764a1.338 1.338 0 0 1 1.113-.857l1.719-.17-.553-5.597-1.72.17c-.503.05-.98-.201-1.252-.626a8.416 8.416 0 0 0-.485-.676 1.338 1.338 0 0 1-.19-1.39l.712-1.57zM271.054 110.876a3.227 3.227 0 1 1 0 6.455 3.232 3.232 0 0 1-3.233-3.229 3.23 3.23 0 0 1 3.233-3.226zm-1.765-3.768-3.417 1.97.605 1.044a.937.937 0 0 1-.033.982 5.364 5.364 0 0 0-.296.51.937.937 0 0 1-.833.519h-1.207v3.941h1.207c.354 0 .673.203.833.518.09.176.188.347.296.511.193.297.21.675.033.982l-.605 1.045 3.417 1.969.604-1.05a.94.94 0 0 1 .87-.458 5.607 5.607 0 0 0 .581 0c.353-.018.69.15.866.456l.609 1.052 3.416-1.97-.605-1.047a.935.935 0 0 1 .035-.982c.107-.164.205-.333.294-.508a.938.938 0 0 1 .833-.518H278v-3.941h-1.208a.937.937 0 0 1-.833-.518 5.53 5.53 0 0 0-.294-.508.935.935 0 0 1-.035-.982l.605-1.048-3.416-1.969-.606 1.048a.936.936 0 0 1-.867.457 5.682 5.682 0 0 0-.583 0 .94.94 0 0 1-.87-.459l-.604-1.046zM50.248 19.59a3.228 3.228 0 1 1 .834 6.4 3.233 3.233 0 0 1-3.622-2.785 3.229 3.229 0 0 1 2.788-3.616zm-2.237-3.51-3.133 2.394.734.958a.935.935 0 0 1 .094.978c-.085.177-.161.359-.227.545a.936.936 0 0 1-.76.621l-1.197.156.51 3.908 1.197-.156a.938.938 0 0 1 .893.407c.111.163.23.319.359.468.23.27.296.642.16.97l-.464 1.113 3.641 1.513.465-1.12a.938.938 0 0 1 .803-.566 5.667 5.667 0 0 0 .576-.075.936.936 0 0 1 .918.34l.739.965 3.133-2.393-.735-.96a.935.935 0 0 1-.092-.98c.085-.175.16-.356.226-.541a.938.938 0 0 1 .76-.62l1.197-.156-.51-3.909-1.197.156a.938.938 0 0 1-.893-.406 5.407 5.407 0 0 0-.358-.466.936.936 0 0 1-.16-.97l.463-1.116-3.642-1.512-.464 1.117a.938.938 0 0 1-.801.565 5.417 5.417 0 0 0-.578.075.94.94 0 0 1-.923-.343l-.734-.96zM24.622 118.487c.18-4.392.107-8.793-.18-13.179-.595-9.046-2.086-18.022-4.133-26.849-1.152-4.968-2.57-9.853-4.05-14.732-.044-.147-.28-.106-.238.048 4.572 17.2 8.323 34.95 8.064 52.83-.072 5.005-.652 9.92-1.127 14.892-.013.133.206.186.236.05.944-4.256 1.251-8.714 1.428-13.06" fill="#EBEBEB"/>
            <path d="M16.02 63.775s-6.926 17.564-5.375 21.693c1.55 4.128 4.748 5.009 4.748 5.009s-4.238 6.045-1.277 11.714c2.962 5.67 9.541 5.402 9.978 11.83 0 0 .367-26.879-8.074-50.246" fill="#EBEBEB"/>
            <path d="M23.342 102.923a.133.133 0 0 0-.008-.093c-.972-11.943-3.093-23.849-6.718-35.334-.01-.034-.066-.023-.057.012a253.746 253.746 0 0 1 3.637 15.498c-.899-.925-2.076-1.457-3.306-1.842-.023-.007-.034.026-.013.036 1.281.553 2.509 1.194 3.414 2.278.203 1.018.4 2.037.588 3.057-1.547-1.728-3.694-2.586-5.842-3.401-.03-.012-.046.035-.017.047 2.238.91 4.466 2.082 5.982 4.008.528 2.915.99 5.84 1.39 8.774a8.376 8.376 0 0 0-4.13-2.365c-.048-.011-.075.06-.026.074 1.646.474 3.062 1.394 4.189 2.68.008.01.017.014.025.02.14 1.033.27 2.066.392 3.1a10.67 10.67 0 0 0-2.894-1.744c-.029-.012-.044.032-.016.044a9.945 9.945 0 0 1 2.9 1.918c.011.01.024.01.036.014.116.984.23 1.968.33 2.954-1.588-1.912-3.551-3.296-5.874-4.191-.046-.018-.069.051-.025.07 2.258.981 4.25 2.536 5.789 4.451a.129.129 0 0 0 .146.046c.15 1.511.283 3.025.395 4.542.001.02.035.023.034.001a193 193 0 0 0-.321-4.654" fill="#FFF"/>
            <path d="M17.777 79.419c-1.202-.825-2.728-1.177-4.162-1.297-.034-.002-.037.049-.003.054 1.49.22 2.743.76 4.114 1.342.06.026.102-.064.05-.1M18.617 98.015c-.95-.57-2.035-.892-3.123-1.068-.039-.006-.042.053-.005.06 1.106.2 2.085.593 3.09 1.082.043.021.08-.05.038-.074" fill="#FFF"/>
            <path d="M42.83 85.755c-2.888 2.028-5.66 4.368-8.016 7-2.512 2.807-4.344 5.992-5.623 9.527a71.156 71.156 0 0 0-4.188 22.783c-.073 4.315.31 8.596 1.235 12.813.033.153.263.11.239-.045a71.81 71.81 0 0 1 .126-22.397c1.19-7.266 3.06-15.172 7.682-21.077 2.517-3.215 5.656-5.745 8.759-8.36.162-.136-.046-.363-.214-.244" fill="#EBEBEB"/>
            <path d="M26.022 119.833s2.379-4.002 5.844-7.463c3.465-3.46 6.383-5.92 6.833-8.21.451-2.288-3.47-3.974-3.47-3.974s4.795.86 6.107-1.15c1.311-2.011 1.945-13.656 1.945-13.656s-8.723 6.223-12.788 14.945c-4.064 8.722-4.47 19.508-4.47 19.508" fill="#EBEBEB"/>
            <path d="M40.263 88.365c-3.67 3.602-7.364 7.44-9.526 12.172a46.727 46.727 0 0 0-1.927 5.019c-.001.002 0 .005-.002.008-.112.344-.225.687-.33 1.034a.126.126 0 0 0-.017.056c-1.069 3.534-1.824 7.189-2.478 10.758-.005.024.03.036.035.012.376-1.817.79-3.651 1.254-5.48a.13.13 0 0 0 .052-.01 7.632 7.632 0 0 1 2.29-.581c.051-.005.047-.096-.006-.093a8.592 8.592 0 0 0-2.264.413c.423-1.65.882-3.295 1.398-4.916a24.34 24.34 0 0 1 5.174-.675c.018 0 .02-.028.002-.029a19.574 19.574 0 0 0-5.087.432c.09-.279.184-.555.277-.832 1.137-.259 2.28-.476 3.443-.583.02-.002.019-.037-.002-.037-1.14.03-2.263.15-3.371.41a60.038 60.038 0 0 1 1.556-4.135 25.063 25.063 0 0 1 1.647-3.194c.933-.211 1.837-.412 2.793-.497.026-.003.023-.045-.003-.047-.867-.056-1.771.009-2.61.258.459-.74.94-1.466 1.456-2.168 1.957-.433 3.94-.835 5.94-.46.035.007.048-.051.014-.06-1.906-.5-3.796-.211-5.692.163.207-.275.419-.546.633-.816 1.2-.371 2.395-.551 3.654-.574.026 0 .03-.038.004-.04a9.554 9.554 0 0 0-3.408.302c1.617-2.008 3.404-3.893 5.17-5.758.082-.087.018-.137-.07-.052" fill="#FFF"/>
            <path d="M40.165 96.303c-.574-.061-1.158-.125-1.735-.06-.07.008-.063.121.007.123.574.017 1.148-.026 1.722.006.045.002.05-.064.006-.069M33.887 107.6c-.917-.012-1.833.235-2.689.539-.021.007-.01.043.013.038.888-.211 1.786-.297 2.682-.445.074-.012.07-.132-.006-.133M32.005 103.697c-.372-.02-.775.046-1.141.103-.038.006-.036.067.003.068.371.006.779.016 1.144-.053.065-.013.062-.114-.006-.118" fill="#FFF"/>
            <path d="M.451 98.112c2.807.975 5.592 2.229 8.108 3.815 2.681 1.69 4.9 3.845 6.753 6.41a59.92 59.92 0 0 1 8.66 17.472c1.058 3.475 1.738 7.028 1.965 10.654.01.132-.187.15-.204.019a60.444 60.444 0 0 0-5.282-18.097c-2.645-5.605-5.986-11.571-11.093-15.282C6.576 101.08 3.45 99.759.335 98.36c-.163-.074-.047-.305.116-.248" fill="#EBEBEB"/>
            <g transform="translate(0 97.913)">
                <mask id="vh5rxg8u6b" fill="#fff">
                    <use xlink:href="#3yqlz4odya"/>
                </mask>
                <path d="M21.937 23.897s-2.85-2.69-6.455-4.69c-3.605-2.001-6.536-3.318-7.43-5.066-.894-1.748 1.89-4.018 1.89-4.018s-3.682 1.803-5.209.479C3.207 9.278 0 0 0 0s8.499 3.022 13.806 9.142c5.307 6.12 8.131 14.755 8.131 14.755" fill="#EBEBEB" mask="url(#vh5rxg8u6b)"/>
            </g>
            <path d="M21.495 119.896c-4.251-7.971-9.923-15.183-17.695-19.943-.003-.001-.007.004-.004.006 2.046 1.302 3.932 2.805 5.689 4.447-1.573-.043-3.175.207-4.57.964-.03.016-.008.058.024.048 1.554-.526 3.048-.87 4.701-.794.023 0 .038-.01.053-.02.277.261.549.527.818.795-.818.035-1.645.15-2.442.324-.021.004-.015.037.007.033a12.487 12.487 0 0 1 2.579-.212 53.345 53.345 0 0 1 4.008 4.547 4.073 4.073 0 0 0-1.707.124c-.04.012-.03.07.013.064.62-.078 1.207-.068 1.822-.025.233.296.468.59.696.89a16.497 16.497 0 0 0-5.158.501c-.025.007-.018.045.008.04a20.761 20.761 0 0 1 5.297-.344c.217.288.423.583.635.874a11.198 11.198 0 0 0-3.07.351c-.04.01-.028.07.012.061 1.045-.238 2.109-.298 3.178-.247a85.663 85.663 0 0 1 2.632 3.848c-.446-.093-.914-.042-1.348.08-.023.007-.017.04.007.037.5-.058.968.006 1.459.07a101.661 101.661 0 0 1 2.19 3.562c.059.1.222.025.166-.08" fill="#FFF"/>
            <path d="M14.883 113.284c-.831-.071-1.676.06-2.47.302-.022.007-.017.041.007.037.818-.15 1.628-.208 2.456-.252.054-.002.065-.082.007-.087M7.47 103.57c-.377-.043-.769.006-1.14.066-.044.007-.03.072.013.067.375-.04.744-.026 1.118-.037.062-.002.071-.09.008-.096" fill="#FFF"/>
            <path fill="#DBDBDB" d="M32.9 148.17H13.714l2.736-20.02.698-5.133h12.316l.699 5.133z"/>
            <path fill="#C7C7C7" d="M30.164 128.15H16.45l.699-5.133h12.315z"/>
            <mask id="fg0b218qtd" fill="#fff">
                <use xlink:href="#6oizkjce4c"/>
            </mask>
            <path fill="#DBDBDB" mask="url(#fg0b218qtd)" d="M15.388 125.584h15.838v-4.348H15.388z"/>
        </g>
        <path fill="#263238" d="m71 147.967-34.5.009L2 148l34.5.024 34.5.01 69 .016 69-.017 34.5-.008L278 148l-34.5-.024-34.5-.01-69-.016z"/>
        <g transform="translate(10 153)">
            <mask id="rugx6vid6f" fill="#fff">
                <use xlink:href="#wt25x7ydxe"/>
            </mask>
            <path d="M260 14.5c0 8.008-58.203 14.5-130 14.5S0 22.508 0 14.5 58.203 0 130 0s130 6.492 130 14.5" fill="#EBEBEB" mask="url(#rugx6vid6f)"/>
        </g>
        <path fill="#FFC727" d="M232.04 171H94l19.96-113H252zM160.905 46h-44.853L114 58h48z"/>
        <g fill="#6A6A6A">
            <path d="M232.04 171H94l19.96-113.27H252zM161.204 46h-45.177l-2.067 11.73h48.348z"/>
        </g>
        <path fill="#A6A6A6" d="M231 171H92.644L73 62h138.356z"/>
        <g fill="#263238">
            <path d="M127.51 122.557c0 3.068-2.577 5.556-5.755 5.556-3.179 0-5.755-2.488-5.755-5.556 0-3.07 2.576-5.557 5.755-5.557 3.178 0 5.754 2.488 5.754 5.557M173 122.557c0 3.068-2.576 5.556-5.755 5.556-3.178 0-5.754-2.488-5.754-5.556 0-3.07 2.576-5.557 5.754-5.557 3.179 0 5.755 2.488 5.755 5.557M152.765 129l-.315-.582c-.03-.052-3.002-5.358-8.984-5.358-5.455 0-6.785 4.996-6.839 5.208l-.161.637-1.32-.308.159-.637c.015-.062 1.62-6.214 8.161-6.214 6.819 0 10.054 5.815 10.188 6.062l.316.582-1.205.61z"/>
        </g>
        <path d="M223 121.877c.294-.063.587-.132.879-.207" stroke="#263238"/>
        <path d="M225.611 121.155c6.904-2.337 12.685-7.783 13.229-14.147 1.199-14.032-15.84-21.782-14.08-37.997 1.679-15.466 17.855-16.57 24.34-14.432 7.161 2.362 4.708 9.265-1.777 8.374-11.242-1.544-18.309-13.802-12.97-27.706 3.99-10.388 13.935-14.306 17.974-15.501" stroke="#263238" stroke-dasharray="4.004,4.004"/>
        <path d="M253.197 19.504c.559-.144.877-.204.877-.204" stroke="#263238"/>
        <path d="M261.232 16.8c-1.152-3.578-8.86-2.292-7.355 2.381 1.504 4.675 8.507 1.196 7.355-2.381" fill="#263238"/>
        <path d="M249.684 15.357c.057-1.569 2.234-2.776 5.31-2.219 3.077.557 5.974 2.635 5.974 2.635s-3.042 1.866-6.15 2.195c-3.11.33-5.192-1.035-5.134-2.61" fill="#EBEBEB"/>
        <path d="M260.968 15.773c-1.597.012-3.192-.042-4.788-.091-1.594-.069-3.189-.132-4.78-.261 1.597-.012 3.192.042 4.787.091 1.594.069 3.189.133 4.78.261" fill="#263238"/>
        <path d="M252.776 13.968c.462.207.89.47 1.32.728.42.276.842.546 1.23.873-.463-.207-.89-.47-1.32-.729-.42-.275-.842-.546-1.23-.872M256.958 15.625c-.405.345-.844.634-1.281.928-.448.277-.892.559-1.372.785.403-.345.843-.634 1.28-.928.448-.277.893-.558 1.373-.785M257.422 14.742c.238.103.436.256.636.406.189.165.38.325.531.538-.239-.103-.436-.257-.637-.406-.188-.165-.38-.326-.53-.538" fill="#263238"/>
        <path d="M252.615 24.669c.962 1.239 3.431.941 5.602-1.315 2.17-2.256 3.309-5.641 3.309-5.641s-3.556.27-6.27 1.827c-2.713 1.556-3.607 3.884-2.64 5.129" fill="#EBEBEB"/>
        <path d="M261.526 17.713c-1.302.928-2.564 1.907-3.83 2.882-1.253.991-2.51 1.978-3.726 3.016 1.302-.927 2.564-1.907 3.83-2.882 1.253-.99 2.51-1.978 3.726-3.016" fill="#263238"/>
        <path d="M255.933 23.982c.254-.439.448-.903.646-1.365.18-.47.365-.936.49-1.429-.255.44-.448.903-.646 1.365-.18.47-.365.937-.49 1.43M258.36 20.185c-.53-.042-1.055-.019-1.58-.001-.525.037-1.05.07-1.572.168.53.043 1.054.02 1.58.001.525-.038 1.05-.07 1.571-.168M259.25 20.63c.134-.224.205-.464.28-.703.057-.244.119-.487.117-.747-.134.223-.204.463-.28.702-.056.245-.117.487-.116.747" fill="#263238"/>
        <path d="M261.232 16.8a1.357 1.357 0 0 1-.83-2.58c.71-.232 1.472.16 1.701.872.23.713-.16 1.478-.871 1.708" fill="#455A64"/>
        <path d="M262.063 19.38a1.352 1.352 0 0 1-1.703-.873 1.352 1.352 0 1 1 2.574-.833c.23.712-.16 1.476-.871 1.707" fill="#455A64"/>
    </g>
</svg>
