<svg width="118" height="48" viewBox="0 0 118 48" xmlns="http://www.w3.org/2000/svg">
    <g fill="none" fill-rule="evenodd">
        <path d="M102 9h-6.5v14.857c0 2.043-1.462 3.715-3.25 3.715H89V35h6.5c3.574 0 6.5-3.343 6.5-7.428V9zM102 23v-6.5h6.4c1.76 0 3.2-1.462 3.2-3.25V10h6.4v6.5c0 3.574-2.88 6.5-6.4 6.5H102zM105 0v6h13c0-3.3-2.925-6-6.5-6H105zM80 35h6V0c-3.3 0-6 3.15-6 7v28z" fill="#F1F1F1"/>
        <g fill="#F1F1F1">
            <path d="M49 0c3.85 0 7 3.15 7 7h-7V0zM14 10.5H7v14A3.51 3.51 0 0 1 3.5 28H0v7h7c3.85 0 7-3.15 7-7V10.5zM14 24.5v-7h31.5A3.51 3.51 0 0 0 49 14v-3.5h7v6.999c0 3.85-3.15 7-7 7H14.002zM56 24.5v-7h10.5A3.51 3.51 0 0 0 70 14v-3.5h7v6.999c0 3.85-3.15 7-7 7H56z"/>
        </g>
        <path d="M54 35c3.3 0 6-2.7 6-6h-6v6zM60 35v-6h13c0 3.3-2.925 6-6.5 6H60z" fill="#F1F1F1"/>
        <path d="M60.222 29v6.333H70.89c3.911 0 7.111 2.85 7.111 6.334C78 45.15 74.8 48 70.889 48H53.111C49.2 48 46 45.15 46 41.667c0-3.484 3.2-6.334 7.111-6.334 3.911 0 7.111-2.85 7.111-6.333zm0 7.106h-7.111 7.111z" fill="#F8FC07"/>
        <path stroke="#2B28BE" stroke-width=".5" stroke-linecap="round" stroke-linejoin="round" d="M59.312 44.834V38.5M62.868 44.834V38.5M66.424 44.834v-3.167"/>
    </g>
</svg>
